<svg width="30" height="31" viewBox="0 0 30 31" fill="none" xmlns="http://www.w3.org/2000/svg">
<path d="M26.9727 15.7495C26.8557 15.7495 26.7443 15.7665 26.6377 15.7993C26.5533 15.8253 26.4741 15.8745 26.4004 15.9556L26.3926 15.9644L15.9658 26.3901L15.5703 27.9604L17.1416 27.5649L27.5674 17.1548L27.626 17.0913C27.7512 16.941 27.8124 16.7672 27.8125 16.5601C27.8125 16.3065 27.7336 16.1223 27.5879 15.9839C27.4391 15.8425 27.2407 15.7593 26.9727 15.7495ZM4.62695 7.74951L13.5312 12.2075L16.6348 10.6558L8.31641 5.89893L4.62695 7.74951ZM10.9414 4.58545L19.2607 9.34326L22.4346 7.74951L13.5303 3.2915L10.9414 4.58545ZM30.25 16.5601C30.2499 16.9864 30.168 17.4019 30.0049 17.8042C29.8411 18.2082 29.6052 18.5642 29.2988 18.8706L18.4463 29.7241L18.3965 29.7729L18.3291 29.7896L12.623 31.2124L12.2197 31.313L12.3203 30.9097L13.7432 25.2026L13.7598 25.1353L13.8086 25.0864L24.6611 14.2485L24.7822 14.1343C25.0674 13.8754 25.3837 13.6768 25.7314 13.5415C26.1246 13.3886 26.5391 13.313 26.9727 13.313C27.4268 13.313 27.8531 13.3941 28.249 13.5591C28.639 13.7216 28.9874 13.9442 29.292 14.2271C29.6037 14.5165 29.8368 14.867 29.9912 15.2749C30.1423 15.6742 30.2286 16.0991 30.25 16.5474V16.5601ZM26.375 11.4448L26.1641 11.478C25.4869 11.5844 24.8703 11.802 24.3135 12.1284L23.9375 12.3491V9.72803L14.75 14.3218V21.4312L12.3125 23.8687V14.3218L3.125 9.72803V22.4897L11.2217 26.5532L11.3994 26.6431L11.3525 26.8364L10.8828 28.7583L10.8086 29.063L10.5283 28.9233L0.826172 24.0796L0.6875 24.0103V6.98975L0.826172 6.92041L13.4199 0.63916L13.5312 0.583496L13.6426 0.63916L26.2363 6.92041L26.375 6.98975V11.4448Z" fill="#2457C5" stroke="#2457C5" stroke-width="0.5"/>
</svg>
