<svg width="31" height="31" viewBox="0 0 31 31" fill="none" xmlns="http://www.w3.org/2000/svg">
<path d="M24.124 9.24976C25.2348 9.24912 26.3042 9.67101 27.1154 10.4298C27.9266 11.1887 28.4187 12.2277 28.492 13.336L28.5008 13.623V14.9478C26.6545 13.4231 24.3062 12.6414 21.9145 12.7553C19.5228 12.8692 17.2594 13.8704 15.5663 15.5635C13.8732 17.2566 12.8719 19.52 12.7581 21.9117C12.6442 24.3034 13.4259 26.6517 14.9505 28.498H13.6258C12.515 28.4982 11.4458 28.0759 10.635 27.3167C9.82412 26.5575 9.3324 25.5184 9.25953 24.41L9.25078 24.123V13.623C9.25061 12.5123 9.67294 11.443 10.4321 10.6322C11.1913 9.82135 12.2304 9.32963 13.3388 9.25676L13.624 9.24976H24.124ZM19.1593 3.46426L19.2433 3.74076L20.2495 7.49801H12.7508C11.4117 7.49794 10.1231 8.00958 9.14882 8.92826C8.17452 9.84694 7.58809 11.1032 7.50953 12.44L7.50078 12.748V22.107C6.60672 22.0881 5.73993 21.7956 5.01715 21.269C4.29437 20.7424 3.75032 20.007 3.45828 19.1618L3.36728 18.8643L0.649529 8.72301C0.361614 7.65019 0.49255 6.50803 1.01578 5.5282C1.539 4.54836 2.41534 3.80424 3.46703 3.44676L3.74353 3.36451L13.8848 0.646764C14.9101 0.371918 16.0003 0.479201 16.9523 0.948623C17.9044 1.41805 18.6533 2.21759 19.0595 3.19826L19.1593 3.46426ZM30.2508 22.3748C30.2508 23.4089 30.0471 24.433 29.6513 25.3884C29.2556 26.3438 28.6755 27.212 27.9442 27.9432C27.213 28.6745 26.3449 29.2546 25.3894 29.6503C24.434 30.0461 23.4099 30.2498 22.3758 30.2498C21.3416 30.2498 20.3176 30.0461 19.3621 29.6503C18.4067 29.2546 17.5386 28.6745 16.8073 27.9432C16.0761 27.212 15.496 26.3438 15.1002 25.3884C14.7045 24.433 14.5008 23.4089 14.5008 22.3748C14.5008 20.2862 15.3305 18.2831 16.8073 16.8063C18.2842 15.3294 20.2872 14.4998 22.3758 14.4998C24.4644 14.4998 26.4674 15.3294 27.9442 16.8063C29.4211 18.2831 30.2508 20.2862 30.2508 22.3748ZM23.2508 18.8748C23.2508 18.6427 23.1586 18.4201 22.9945 18.256C22.8304 18.0919 22.6078 17.9998 22.3758 17.9998C22.1437 17.9998 21.9212 18.0919 21.7571 18.256C21.593 18.4201 21.5008 18.6427 21.5008 18.8748V21.4998H18.8758C18.6437 21.4998 18.4212 21.5919 18.2571 21.756C18.093 21.9201 18.0008 22.1427 18.0008 22.3748C18.0008 22.6068 18.093 22.8294 18.2571 22.9935C18.4212 23.1576 18.6437 23.2498 18.8758 23.2498H21.5008V25.8748C21.5008 26.1068 21.593 26.3294 21.7571 26.4935C21.9212 26.6576 22.1437 26.7498 22.3758 26.7498C22.6078 26.7498 22.8304 26.6576 22.9945 26.4935C23.1586 26.3294 23.2508 26.1068 23.2508 25.8748V23.2498H25.8758C26.1078 23.2498 26.3304 23.1576 26.4945 22.9935C26.6586 22.8294 26.7508 22.6068 26.7508 22.3748C26.7508 22.1427 26.6586 21.9201 26.4945 21.756C26.3304 21.5919 26.1078 21.4998 25.8758 21.4998H23.2508V18.8748Z" fill="#2457C5"/>
</svg>
