<svg width="26" height="26" viewBox="0 0 26 26" fill="none" xmlns="http://www.w3.org/2000/svg">
<path d="M25.3258 13.0796C25.3268 12.2111 25.2534 11.3442 25.1063 10.4883H13.0879V15.3965H19.9715C19.8306 16.1805 19.5325 16.9277 19.095 17.5933C18.6576 18.2589 18.0899 18.829 17.4262 19.2693V22.4554H21.5344C23.9399 20.2375 25.3258 16.9577 25.3258 13.0796Z" fill="#4285F4"/>
<path d="M13.0877 25.5335C16.5268 25.5335 19.4226 24.4043 21.5342 22.4573L17.426 19.2712C16.2826 20.0465 14.8099 20.489 13.0877 20.489C9.76359 20.489 6.94219 18.2482 5.93328 15.2285H1.70117V18.5119C2.76188 20.6226 4.38837 22.3969 6.39904 23.6369C8.40971 24.8768 10.7254 25.5334 13.0877 25.5335Z" fill="#34A853"/>
<path d="M5.93288 15.227C5.3995 13.6447 5.3995 11.9311 5.93288 10.3488V7.06543H1.70077C0.808463 8.84103 0.34375 10.8007 0.34375 12.7879C0.34375 14.7751 0.808463 16.7347 1.70077 18.5103L5.93288 15.227Z" fill="#FBBC04"/>
<path d="M13.0877 5.08932C14.9051 5.05963 16.6612 5.74631 17.9765 7.00094L21.6138 3.36356C19.3074 1.19719 16.2518 0.0078252 13.0877 0.0447814C10.7254 0.0448891 8.40971 0.701554 6.39904 1.94146C4.38837 3.18137 2.76188 4.95573 1.70117 7.06643L5.93328 10.3498C6.94218 7.33016 9.76359 5.08932 13.0877 5.08932Z" fill="#EA4335"/>
</svg>
